<svg data-v-fde0c5aa="" xmlns="http://www.w3.org/2000/svg" viewBox="0 0 300 300" class="iconAboveSlogan"><!----><defs data-v-fde0c5aa=""><!----></defs><rect data-v-fde0c5aa="" fill="#732924" x="0" y="0" width="300px" height="300px" class="logo-background-square"></rect><defs data-v-fde0c5aa=""><!----></defs><g data-v-fde0c5aa="" id="c88c07fb-7fa4-40ee-8230-7d63db02be1a" fill="#ffffff" transform="matrix(3.1572556495666504,0,0,3.1572556495666504,18.484517309982444,130.0543130237924)"><path d="M2.37 19.32L2.37 19.32L1.78 19.33L1.78 19.33Q0.88 19.33 0.67 19.05L0.67 19.05L0.67 19.05Q0.57 18.93 0.57 18.75L0.57 18.75L0.57 18.75Q0.57 18.58 0.71 18.51L0.71 18.51L0.71 18.51Q0.85 18.44 1.02 18.44L1.02 18.44L1.02 18.44Q1.18 18.43 1.32 18.33L1.32 18.33L1.32 18.33Q1.46 18.23 1.46 18.01L1.46 18.01L1.46 14.11L1.46 14.11Q1.46 13.90 1.30 13.80L1.30 13.80L1.30 13.80Q1.15 13.70 0.97 13.69L0.97 13.69L0.97 13.69Q0.48 13.66 0.48 13.38L0.48 13.38L0.48 13.38Q0.48 12.93 1.38 12.77L1.38 12.77L1.38 12.77Q1.59 12.73 1.76 12.73L1.76 12.73L1.76 12.73Q2.35 12.73 2.52 12.90L2.52 12.90L2.52 12.90Q2.69 13.08 2.69 13.68L2.69 13.68L2.69 13.68Q3.64 12.63 5.25 12.63L5.25 12.63L5.25 12.63Q5.81 12.63 6.34 12.96L6.34 12.96L6.34 12.96Q6.87 13.30 7.16 13.75L7.16 13.75L7.16 13.75Q8.33 12.62 9.75 12.62L9.75 12.62L9.75 12.62Q11.40 12.62 11.85 14.03L11.85 14.03L11.85 14.03Q12.09 14.79 12.09 16.10L12.09 16.10L12.09 18.01L12.09 18.01Q12.09 18.41 12.53 18.43L12.53 18.43L12.53 18.43Q12.97 18.46 12.97 18.79L12.97 18.79L12.97 18.79Q12.97 19.16 12.56 19.25L12.56 19.25L12.56 19.25Q12.25 19.32 11.70 19.32L11.70 19.32L11.12 19.33L11.12 19.33Q10.22 19.33 10.01 19.05L10.01 19.05L10.01 19.05Q9.91 18.93 9.91 18.75L9.91 18.75L9.91 18.75Q9.91 18.58 10.05 18.51L10.05 18.51L10.05 18.51Q10.19 18.44 10.35 18.44L10.35 18.44L10.35 18.44Q10.52 18.43 10.66 18.33L10.66 18.33L10.66 18.33Q10.79 18.23 10.79 18.01L10.79 18.01L10.79 15.91L10.79 15.91Q10.79 14.35 10.45 13.92L10.45 13.92L10.45 13.92Q10.12 13.50 9.51 13.50L9.51 13.50L9.51 13.50Q8.90 13.50 8.45 13.66L8.45 13.66L8.45 13.66Q8.00 13.82 7.72 14.16L7.72 14.16L7.72 14.16Q7.43 14.50 7.43 14.96L7.43 14.96L7.43 18.01L7.43 18.01Q7.43 18.41 7.87 18.43L7.87 18.43L7.87 18.43Q8.31 18.46 8.31 18.79L8.31 18.79L8.31 18.79Q8.31 19.16 7.90 19.25L7.90 19.25L7.90 19.25Q7.59 19.32 7.04 19.32L7.04 19.32L6.45 19.33L6.45 19.33Q5.56 19.33 5.35 19.05L5.35 19.05L5.35 19.05Q5.25 18.93 5.25 18.75L5.25 18.75L5.25 18.75Q5.25 18.58 5.39 18.51L5.39 18.51L5.39 18.51Q5.52 18.44 5.69 18.44L5.69 18.44L5.69 18.44Q5.86 18.43 6.00 18.33L6.00 18.33L6.00 18.33Q6.13 18.23 6.13 18.01L6.13 18.01L6.13 15.98L6.13 15.98Q6.13 14.69 5.91 14.21L5.91 14.21L5.91 14.21Q5.58 13.50 4.79 13.50L4.79 13.50L4.79 13.50Q3.80 13.50 3.28 14L3.28 14L3.28 14Q2.75 14.50 2.75 15.42L2.75 15.42L2.75 18.01L2.75 18.01Q2.75 18.41 3.20 18.43L3.20 18.43L3.20 18.43Q3.64 18.46 3.64 18.79L3.64 18.79L3.64 18.79Q3.64 19.16 3.23 19.25L3.23 19.25L3.23 19.25Q2.91 19.32 2.37 19.32ZM19.47 16.36L19.47 16.36L19.47 16.36Q19.47 15.66 19.21 15.02L19.21 15.02L19.21 15.02Q18.95 14.37 18.45 13.94L18.45 13.94L18.45 13.94Q17.94 13.51 17.32 13.51L17.32 13.51L17.32 13.51Q16.47 13.51 15.74 14.18L15.74 14.18L15.74 17.94L15.74 17.94Q16.56 18.59 17.49 18.59L17.49 18.59L17.49 18.59Q18.43 18.59 18.95 17.97L18.95 17.97L18.95 17.97Q19.47 17.36 19.47 16.36ZM14.71 19.37L14.71 19.37L14.71 19.37Q14.44 19.37 14.44 18.75L14.44 18.75L14.44 10.79L14.44 10.79Q14.44 10.17 13.95 10.12L13.95 10.12L13.95 10.12Q13.90 10.12 13.83 10.11L13.83 10.11L13.83 10.11Q13.75 10.10 13.72 10.10L13.72 10.10L13.72 10.10Q13.69 10.10 13.63 10.09L13.63 10.09L13.63 10.09Q13.58 10.08 13.56 10.06L13.56 10.06L13.56 10.06Q13.54 10.05 13.51 10.03L13.51 10.03L13.51 10.03Q13.47 9.99 13.47 9.83L13.47 9.83L13.47 9.83Q13.47 9.67 13.68 9.50L13.68 9.50L13.68 9.50Q14.06 9.19 14.71 9.19L14.71 9.19L14.71 9.19Q15.40 9.19 15.52 9.27L15.52 9.27L15.52 9.27Q15.75 9.43 15.75 9.70L15.75 9.70L15.75 13.48L15.75 13.48Q16.77 12.61 18.07 12.61L18.07 12.61L18.07 12.61Q19.37 12.61 20.16 13.52L20.16 13.52L20.16 13.52Q20.95 14.42 20.95 15.89L20.95 15.89L20.95 15.89Q20.95 16.80 20.55 17.62L20.55 17.62L20.55 17.62Q20.15 18.43 19.42 18.94L19.42 18.94L19.42 18.94Q18.70 19.44 17.84 19.44L17.84 19.44L17.84 19.44Q16.61 19.44 15.46 18.67L15.46 18.67L15.46 18.67Q15.44 18.68 15.27 18.92L15.27 18.92L15.27 18.92Q14.94 19.37 14.71 19.37ZM23.08 14.98L23.08 14.98L23.08 14.98Q22.83 14.98 22.51 14.78L22.51 14.78L22.51 14.78Q22.19 14.58 22.19 14.26L22.19 14.26L22.19 14.26Q22.19 13.93 22.37 13.64L22.37 13.64L22.37 13.64Q22.56 13.36 22.85 13.18L22.85 13.18L22.85 13.18Q23.15 13.00 23.54 12.87L23.54 12.87L23.54 12.87Q24.25 12.65 25.07 12.65L25.07 12.65L25.07 12.65Q26.45 12.65 27.07 13.26L27.07 13.26L27.07 13.26Q27.70 13.87 27.70 15.28L27.70 15.28L27.69 17.29L27.69 17.29Q27.69 18.03 27.88 18.21L27.88 18.21L27.88 18.21Q27.92 18.26 28.18 18.33L28.18 18.33L28.18 18.33Q28.88 18.55 28.88 18.67L28.88 18.67L28.88 18.67Q28.88 19.39 27.41 19.39L27.41 19.39L27.41 19.39Q26.85 19.39 26.68 19.14L26.68 19.14L26.68 19.14Q26.52 18.89 26.50 18.25L26.50 18.25L26.50 18.25Q26.20 18.80 25.57 19.14L25.57 19.14L25.57 19.14Q24.94 19.48 24.22 19.48L24.22 19.48L24.22 19.48Q23.50 19.48 23.00 19.30L23.00 19.30L23.00 19.30Q22.50 19.11 22.19 18.70L22.19 18.70L22.19 18.70Q21.88 18.29 21.88 17.81L21.88 17.81L21.88 17.81Q21.88 17.33 21.99 17.04L21.99 17.04L21.99 17.04Q22.10 16.75 22.26 16.55L22.26 16.55L22.26 16.55Q22.43 16.35 22.71 16.19L22.71 16.19L22.71 16.19Q23.00 16.04 23.24 15.94L23.24 15.94L23.24 15.94Q23.49 15.85 23.88 15.78L23.88 15.78L23.88 15.78Q24.45 15.67 24.84 15.62L24.84 15.62L24.84 15.62Q25.23 15.58 25.25 15.57L25.25 15.57L25.25 15.57Q25.29 15.57 25.71 15.52L25.71 15.52L25.71 15.52Q26.14 15.48 26.39 15.34L26.39 15.34L26.39 15.34Q26.39 14.04 26.04 13.64L26.04 13.64L26.04 13.64Q25.73 13.30 25.03 13.30L25.03 13.30L25.03 13.30Q24.32 13.30 23.97 13.66L23.97 13.66L23.97 13.66Q23.62 14.02 23.62 14.80L23.62 14.80L23.63 14.95L23.63 14.95Q23.34 14.98 23.08 14.98ZM26.39 15.96L26.39 15.96L26.39 15.96Q25.92 16.13 25.34 16.19L25.34 16.19L25.34 16.19Q24.75 16.26 24.42 16.34L24.42 16.34L24.42 16.34Q24.08 16.43 23.86 16.56L23.86 16.56L23.86 16.56Q23.34 16.86 23.34 17.60L23.34 17.60L23.34 17.60Q23.34 18.77 24.71 18.77L24.71 18.77L24.71 18.77Q25.89 18.77 26.20 17.64L26.20 17.64L26.20 17.64Q26.39 17.00 26.39 15.96ZM36.42 19.32L36.42 19.32L35.83 19.33L35.83 19.33Q34.94 19.33 34.73 19.05L34.73 19.05L34.73 19.05Q34.63 18.93 34.63 18.75L34.63 18.75L34.63 18.75Q34.63 18.58 34.77 18.51L34.77 18.51L34.77 18.51Q34.90 18.44 35.07 18.44L35.07 18.44L35.07 18.44Q35.24 18.43 35.38 18.33L35.38 18.33L35.38 18.33Q35.51 18.23 35.51 18.01L35.51 18.01L35.52 16.02L35.52 16.02Q35.52 14.77 35.22 14.17L35.22 14.17L35.22 14.17Q34.89 13.50 33.85 13.50L33.85 13.50L33.85 13.50Q32.76 13.50 32.32 14.19L32.32 14.19L32.32 14.19Q31.92 14.83 31.92 16.06L31.92 16.06L31.92 18.01L31.92 18.01Q31.92 18.41 32.36 18.43L32.36 18.43L32.36 18.43Q32.81 18.46 32.81 18.79L32.81 18.79L32.81 18.79Q32.81 19.16 32.39 19.25L32.39 19.25L32.39 19.25Q32.09 19.32 31.53 19.32L31.53 19.32L30.95 19.33L30.95 19.33Q30.05 19.33 29.84 19.05L29.84 19.05L29.84 19.05Q29.74 18.93 29.74 18.75L29.74 18.75L29.74 18.75Q29.74 18.58 29.88 18.51L29.88 18.51L29.88 18.51Q30.02 18.44 30.18 18.44L30.18 18.44L30.18 18.44Q30.35 18.43 30.49 18.33L30.49 18.33L30.49 18.33Q30.63 18.23 30.63 18.01L30.63 18.01L30.63 10.57L30.63 10.57Q30.63 10.17 30.13 10.09L30.13 10.09L30.13 10.09Q29.79 10.04 29.72 9.97L29.72 9.97L29.72 9.97Q29.65 9.91 29.65 9.75L29.65 9.75L29.65 9.75Q29.65 9.60 29.79 9.48L29.79 9.48L29.79 9.48Q29.93 9.36 30.17 9.30L30.17 9.30L30.17 9.30Q30.58 9.19 31.08 9.19L31.08 9.19L31.08 9.19Q31.93 9.19 31.93 9.70L31.93 9.70L31.93 13.67L31.93 13.67Q32.86 12.62 34.28 12.62L34.28 12.62L34.28 12.62Q35.70 12.62 36.26 13.35L36.26 13.35L36.26 13.35Q36.82 14.08 36.82 15.55L36.82 15.55L36.81 18.01L36.81 18.01Q36.81 18.41 37.25 18.43L37.25 18.43L37.25 18.43Q37.69 18.46 37.69 18.79L37.69 18.79L37.69 18.79Q37.69 19.16 37.28 19.25L37.28 19.25L37.28 19.25Q36.97 19.32 36.42 19.32ZM48.52 17.32L48.79 17.97L48.79 17.97Q50.15 14.44 50.28 13.79L50.28 13.79L50.28 13.79Q50.28 13.64 49.97 13.58L49.97 13.58L49.97 13.58Q49.39 13.45 49.39 13.21L49.39 13.21L49.39 13.21Q49.39 13.02 49.44 12.94L49.44 12.94L49.44 12.94Q50.15 12.77 51.02 12.77L51.02 12.77L51.02 12.77Q52.43 12.77 52.43 13.06L52.43 13.06L52.43 13.06Q52.43 13.32 52.20 13.50L52.20 13.50L52.20 13.50Q51.69 13.58 51.43 13.81L51.43 13.81L51.43 13.81Q51.17 14.05 51.00 14.50L51.00 14.50L50.57 15.61L50.57 15.61Q49.35 18.70 49.21 18.92L49.21 18.92L49.21 18.92Q48.88 19.48 48.56 19.48L48.56 19.48L48.56 19.48Q48.31 19.48 48.02 18.85L48.02 18.85L48.02 18.85Q47.96 18.74 47.95 18.72L47.95 18.72L46.39 15.26L46.39 15.26Q45.31 17.68 44.73 18.88L44.73 18.88L44.73 18.88Q44.58 19.23 44.43 19.33L44.43 19.33L44.43 19.33Q44.27 19.43 44.10 19.43L44.10 19.43L44.10 19.43Q43.93 19.43 43.88 19.38L43.88 19.38L43.88 19.38Q43.83 19.33 43.77 19.22L43.77 19.22L43.77 19.22Q43.71 19.11 43.67 19.04L43.67 19.04L43.67 19.04Q43.63 18.96 43.56 18.82L43.56 18.82L43.56 18.82Q43.49 18.68 43.47 18.65L43.47 18.65L41.84 14.88L41.84 14.88Q41.41 13.80 41.24 13.63L41.24 13.63L41.24 13.64L41.24 13.64Q41.12 13.58 40.84 13.54L40.84 13.54L40.84 13.54Q40.56 13.49 40.41 13.41L40.41 13.41L40.41 13.41Q40.27 13.32 40.27 13.10L40.27 13.10L40.27 13.10Q40.27 12.77 42.14 12.77L42.14 12.77L42.14 12.77Q42.79 12.77 43.25 12.86L43.25 12.86L43.25 12.86Q43.72 12.95 43.72 13.08L43.72 13.08L43.72 13.08Q43.72 13.30 43.64 13.38L43.64 13.38L43.64 13.38Q43.55 13.45 43.33 13.51L43.33 13.51L43.33 13.51Q42.94 13.62 42.94 13.85L42.94 13.85L42.94 13.85Q42.94 14.19 43.59 15.88L43.59 15.88L43.59 15.88Q44.24 17.58 44.43 17.95L44.43 17.95L44.43 17.95Q45.05 16.63 45.93 14.40L45.93 14.40L45.93 14.40Q45.71 13.84 45.53 13.70L45.53 13.70L45.25 13.47L45.25 13.47Q45.02 13.30 45.02 13.23L45.02 13.23L45.02 13.23Q45.02 12.87 46.37 12.87L46.37 12.87L46.37 12.87Q47.72 12.87 47.72 13.14L47.72 13.14L47.72 13.14Q47.72 13.38 47.41 13.41L47.41 13.41L47.41 13.41Q47.10 13.43 47.10 13.62L47.10 13.62L47.10 13.62Q47.10 13.80 47.15 13.94L47.15 13.94L47.15 13.94Q47.20 14.08 47.26 14.22L47.26 14.22L47.26 14.22Q47.31 14.35 47.41 14.62L47.41 14.62L47.41 14.62Q47.66 15.31 48.52 17.32L48.52 17.32ZM53.48 18.57L53.48 18.57L53.48 18.57Q52.53 17.64 52.53 16.11L52.53 16.11L52.53 16.11Q52.53 14.57 53.49 13.61L53.49 13.61L53.49 13.61Q54.44 12.65 55.92 12.65L55.92 12.65L55.92 12.65Q57.09 12.65 57.89 13.40L57.89 13.40L57.89 13.40Q58.69 14.16 58.69 15.30L58.69 15.30L58.69 15.30Q58.69 15.85 57.82 15.85L57.82 15.85L53.86 15.85L53.86 15.85Q53.87 16.96 54.58 17.72L54.58 17.72L54.58 17.72Q55.28 18.48 56.36 18.48L56.36 18.48L56.36 18.48Q57.07 18.48 57.74 18.06L57.74 18.06L57.74 18.06Q58.09 17.84 58.19 17.84L58.19 17.84L58.19 17.84Q58.29 17.84 58.42 17.94L58.42 17.94L58.42 17.94Q58.54 18.04 58.54 18.18L58.54 18.18L58.54 18.18Q58.54 18.56 58.06 18.88L58.06 18.88L58.06 18.88Q57.58 19.20 57.00 19.35L57.00 19.35L57.00 19.35Q56.42 19.50 55.98 19.50L55.98 19.50L55.98 19.50Q54.43 19.50 53.48 18.57ZM57.44 15.13L57.44 15.13L57.44 15.13Q57.42 14.35 57.03 13.86L57.03 13.86L57.03 13.86Q56.63 13.36 55.87 13.36L55.87 13.36L55.87 13.36Q55.10 13.36 54.53 13.91L54.53 13.91L54.53 13.91Q53.96 14.46 53.93 15.16L53.93 15.16L55.53 15.16L55.53 15.16Q56.59 15.16 57.44 15.13ZM65.21 16.36L65.21 16.36L65.21 16.36Q65.21 15.66 64.95 15.02L64.95 15.02L64.95 15.02Q64.69 14.37 64.19 13.94L64.19 13.94L64.19 13.94Q63.68 13.51 63.06 13.51L63.06 13.51L63.06 13.51Q62.21 13.51 61.48 14.18L61.48 14.18L61.48 17.94L61.48 17.94Q62.30 18.59 63.23 18.59L63.23 18.59L63.23 18.59Q64.17 18.59 64.69 17.97L64.69 17.97L64.69 17.97Q65.21 17.36 65.21 16.36ZM60.45 19.37L60.45 19.37L60.45 19.37Q60.18 19.37 60.18 18.75L60.18 18.75L60.18 10.79L60.18 10.79Q60.18 10.17 59.69 10.12L59.69 10.12L59.69 10.12Q59.64 10.12 59.57 10.11L59.57 10.11L59.57 10.11Q59.49 10.10 59.46 10.10L59.46 10.10L59.46 10.10Q59.42 10.10 59.37 10.09L59.37 10.09L59.37 10.09Q59.32 10.08 59.30 10.06L59.30 10.06L59.30 10.06Q59.27 10.05 59.25 10.03L59.25 10.03L59.25 10.03Q59.21 9.99 59.21 9.83L59.21 9.83L59.21 9.83Q59.21 9.67 59.42 9.50L59.42 9.50L59.42 9.50Q59.80 9.19 60.45 9.19L60.45 9.19L60.45 9.19Q61.14 9.19 61.26 9.27L61.26 9.27L61.26 9.27Q61.49 9.43 61.49 9.70L61.49 9.70L61.49 13.48L61.49 13.48Q62.51 12.61 63.81 12.61L63.81 12.61L63.81 12.61Q65.11 12.61 65.90 13.52L65.90 13.52L65.90 13.52Q66.68 14.42 66.68 15.89L66.68 15.89L66.68 15.89Q66.68 16.80 66.28 17.62L66.28 17.62L66.28 17.62Q65.88 18.43 65.16 18.94L65.16 18.94L65.16 18.94Q64.44 19.44 63.58 19.44L63.58 19.44L63.58 19.44Q62.35 19.44 61.20 18.67L61.20 18.67L61.20 18.67Q61.18 18.68 61.01 18.92L61.01 18.92L61.01 18.92Q60.68 19.37 60.45 19.37ZM68.71 19.32L68.71 19.32L68.71 19.32Q68.43 19.32 68.14 19.10L68.14 19.10L68.14 19.10Q67.85 18.88 67.85 18.54L67.85 18.54L67.85 18.54Q67.85 18.19 68.16 17.96L68.16 17.96L68.16 17.96Q68.48 17.73 68.80 17.73L68.80 17.73L68.80 17.73Q69.12 17.73 69.44 17.94L69.44 17.94L69.44 17.94Q69.77 18.15 69.77 18.44L69.77 18.44L69.77 18.44Q69.77 19.06 69.15 19.26L69.15 19.26L69.15 19.26Q68.99 19.32 68.71 19.32ZM71.58 10.74L71.58 10.74L71.58 10.74Q71.58 10.44 71.87 10.18L71.87 10.18L71.87 10.18Q72.16 9.91 72.51 9.91L72.51 9.91L72.51 9.91Q72.85 9.91 73.18 10.12L73.18 10.12L73.18 10.12Q73.50 10.34 73.50 10.68L73.50 10.68L73.50 10.68Q73.50 11.03 73.23 11.27L73.23 11.27L73.23 11.27Q72.95 11.50 72.56 11.50L72.56 11.50L72.56 11.50Q72.16 11.50 71.87 11.29L71.87 11.29L71.87 11.29Q71.58 11.07 71.58 10.74ZM73.01 19.32L73.01 19.32L72.42 19.33L72.42 19.33Q71.52 19.33 71.31 19.05L71.31 19.05L71.31 19.05Q71.22 18.93 71.22 18.75L71.22 18.75L71.22 18.75Q71.22 18.58 71.35 18.51L71.35 18.51L71.35 18.51Q71.49 18.44 71.66 18.44L71.66 18.44L71.66 18.44Q71.83 18.43 71.96 18.33L71.96 18.33L71.96 18.33Q72.10 18.23 72.10 18.01L72.10 18.01L72.10 14.33L72.10 14.33Q72.10 13.71 71.61 13.67L71.61 13.67L71.61 13.67Q71.57 13.66 71.49 13.65L71.49 13.65L71.49 13.65Q71.42 13.64 71.38 13.64L71.38 13.64L71.38 13.64Q71.35 13.64 71.30 13.63L71.30 13.63L71.30 13.63Q71.24 13.62 71.22 13.60L71.22 13.60L71.22 13.60Q71.20 13.59 71.17 13.57L71.17 13.57L71.17 13.57Q71.12 13.54 71.12 13.37L71.12 13.37L71.12 13.37Q71.12 13.21 71.33 13.04L71.33 13.04L71.33 13.04Q71.72 12.73 72.37 12.73L72.37 12.73L72.37 12.73Q72.97 12.73 73.07 12.78L73.07 12.78L73.07 12.78Q73.18 12.82 73.25 12.88L73.25 12.88L73.25 12.88Q73.40 12.97 73.40 13.24L73.40 13.24L73.40 18.01L73.40 18.01Q73.40 18.41 73.84 18.43L73.84 18.43L73.84 18.43Q74.28 18.46 74.28 18.79L74.28 18.79L74.28 18.79Q74.28 19.16 73.87 19.25L73.87 19.25L73.87 19.25Q73.55 19.32 73.01 19.32ZM80.47 14.18L80.47 14.18Q80.19 13.81 79.65 13.59L79.65 13.59L79.65 13.59Q79.11 13.36 78.45 13.36L78.45 13.36L78.45 13.36Q77.79 13.36 77.32 13.75L77.32 13.75L77.32 13.75Q76.42 14.49 76.42 15.95L76.42 15.95L76.42 15.95Q76.42 17.08 77.03 17.86L77.03 17.86L77.03 17.86Q77.64 18.64 78.62 18.64L78.62 18.64L78.62 18.64Q79.60 18.64 80.04 18.23L80.04 18.23L80.04 18.23Q80.47 17.83 80.47 16.88L80.47 16.88L80.47 14.18ZM78.59 12.63L78.59 12.63L78.59 12.63Q79.04 12.63 79.59 12.77L79.59 12.77L79.59 12.77Q80.15 12.92 80.47 13.08L80.47 13.08L80.47 10.79L80.47 10.79Q80.47 10.17 79.98 10.12L79.98 10.12L79.98 10.12Q79.93 10.12 79.86 10.11L79.86 10.11L79.86 10.11Q79.78 10.10 79.75 10.10L79.75 10.10L79.75 10.10Q79.71 10.10 79.66 10.09L79.66 10.09L79.66 10.09Q79.61 10.08 79.59 10.06L79.59 10.06L79.59 10.06Q79.56 10.05 79.54 10.03L79.54 10.03L79.54 10.03Q79.50 9.99 79.50 9.83L79.50 9.83L79.50 9.83Q79.50 9.67 79.71 9.50L79.71 9.50L79.71 9.50Q80.09 9.19 80.74 9.19L80.74 9.19L80.74 9.19Q81.43 9.19 81.55 9.27L81.55 9.27L81.55 9.27Q81.78 9.43 81.78 9.70L81.78 9.70L81.78 17.18L81.78 17.18Q81.78 17.94 81.94 18.16L81.94 18.16L81.94 18.16Q82.11 18.38 82.25 18.43L82.25 18.43L82.25 18.43Q82.38 18.48 82.48 18.51L82.48 18.51L82.48 18.51Q82.58 18.55 82.62 18.56L82.62 18.56L82.62 18.56Q82.66 18.58 82.72 18.62L82.72 18.62L82.72 18.62Q82.83 18.68 82.83 18.81L82.83 18.81L82.83 18.81Q82.83 19.10 82.53 19.23L82.53 19.23L82.53 19.23Q82.22 19.37 81.72 19.37L81.72 19.37L81.72 19.37Q81.22 19.37 80.99 19.17L80.99 19.17L80.99 19.17Q80.77 18.98 80.60 18.47L80.60 18.47L80.60 18.47Q80.04 19.46 78.26 19.46L78.26 19.46L78.26 19.46Q76.84 19.46 75.94 18.52L75.94 18.52L75.94 18.52Q75.05 17.58 75.05 16.07L75.05 16.07L75.05 16.07Q75.05 14.57 76.04 13.60L76.04 13.60L76.04 13.60Q77.03 12.63 78.59 12.63Z"></path></g><defs data-v-fde0c5aa=""><!----></defs><g data-v-fde0c5aa="" id="2f564118-8412-4426-9a5e-11719985f3aa" stroke="none" fill="#E3A489" transform="matrix(0.9617814421653748,0,0,0.9617814421653748,119.21578045833209,83.36260593022918)"><path d="M30.586 41.386L29.172 42.8c.755.756 1.76 1.172 2.828 1.172s2.073-.416 2.828-1.172l-1.414-1.414c-.756.756-2.072.756-2.828 0zM34.172 22.264l1.414 1.414a2.003 2.003 0 0 1 2.828 0l1.414-1.414a4.001 4.001 0 0 0-5.656 0zM25.062 23.847h3.896v2h-3.896z"></path><path d="M54.984 60c-1.858-6.084-5.635-11.449-10.264-14.353.182-.864.28-1.759.28-2.677v-3.099c2.279-.464 4-2.484 4-4.898s-1.721-4.435-4-4.898v-7.104V17.001c0-4.963-5.832-9-13-9s-13 4.037-13 9v13.071c-2.279.464-4 2.484-4 4.898s1.721 4.435 4 4.898v3.102c0 .941.106 1.858.297 2.743-4.642 2.888-8.414 8.23-10.266 14.287l14.245-.033-1.237-8.658a13.043 13.043 0 0 0 5.996 4.039l-4.619 4.619H31V55.92c.331.025.663.051 1 .051.337 0 .668-.025 1-.051v4.047h7.584l-4.619-4.619a13.046 13.046 0 0 0 5.997-4.039l-1.237 8.658L54.984 60zM21 31.971h2.142c.447 1.721 2 3 3.858 3a3.95 3.95 0 0 0 2-.557v1.557c0 .173.023.339.051.504A33.101 33.101 0 0 0 21 38.48v-6.509zm19.858-2c-.447-1.721-2-3-3.858-3s-3.411 1.279-3.858 3h-2.284c-.447-1.721-2-3-3.858-3s-3.411 1.279-3.858 3H21v-7.956c9.311.338 13.855-5.252 15.341-7.615 2.434 1.714 6.654 5.352 6.659 8.565v7.006h-2.142zm-1.858 1c0 1.103-.897 2-2 2s-2-.897-2-2 .897-2 2-2 2 .897 2 2zm-12 2c-1.103 0-2-.897-2-2s.897-2 2-2 2 .897 2 2-.897 2-2 2zm4-1h2v4a1.001 1.001 0 0 1-2 0v-4zm4 4v-1.557a3.95 3.95 0 0 0 2 .557c1.858 0 3.411-1.279 3.858-3H43v6.268c-3.005-1.193-6.03-1.669-8.042-1.856.019-.137.042-.272.042-.412zm12-.998a2.993 2.993 0 0 1-2 2.815v-5.631c1.162.414 2 1.514 2 2.816zM32 10.001c6.065 0 11 3.141 11 7v.93c-2.43-3.248-6.235-5.661-6.47-5.808a1 1 0 0 0-1.443.442c-.037.081-3.639 7.846-14.087 7.442v-3.006c0-3.859 4.935-7 11-7zm-15 24.97c0-1.302.838-2.401 2-2.815v5.631a2.997 2.997 0 0 1-2-2.816zm15 19c-6.066 0-11-4.935-11-11v-2.326c1.286-.557 4.743-1.888 9.208-2.281a2.972 2.972 0 0 0 1.791.607c.744 0 1.417-.282 1.941-.731l-.004.067c1.936.124 5.601.576 9.064 2.113v2.551c0 6.065-4.934 11-11 11z"></path></g><defs data-v-fde0c5aa=""><!----></defs><g data-v-fde0c5aa="" id="58ef92aa-c767-4d0f-aac2-4dc198182163" fill="#ffffff" transform="matrix(0.7177825570106506,0,0,0.7177825570106506,51.897062661354454,197.54379381648158)"><path d="M0.84 6.97L0.84 5.88L7.73 5.88L7.73 6.97L4.87 6.97L4.87 15.68L3.70 15.68L3.70 6.97L0.84 6.97ZM22.92 12.15L22.92 15.68L21.74 15.68L21.74 12.40L21.74 12.40Q21.74 12.04 21.57 11.84L21.57 11.84L21.57 11.84Q21.41 11.65 20.99 11.65L20.99 11.65L17.93 11.65L17.93 15.68L16.76 15.68L16.76 5.88L20.26 5.88L20.26 5.88Q21.01 5.88 21.57 6.10L21.57 6.10L21.57 6.10Q22.13 6.31 22.50 6.68L22.50 6.68L22.50 6.68Q22.88 7.04 23.06 7.53L23.06 7.53L23.06 7.53Q23.25 8.01 23.25 8.54L23.25 8.54L23.25 8.96L23.25 8.96Q23.25 9.51 22.95 10.05L22.95 10.05L22.95 10.05Q22.65 10.60 22.02 10.89L22.02 10.89L22.02 11.06L22.02 11.06Q22.44 11.13 22.68 11.40L22.68 11.40L22.68 11.40Q22.92 11.66 22.92 12.15L22.92 12.15ZM17.93 6.97L17.93 10.56L20.12 10.56L20.12 10.56Q21.11 10.56 21.59 10.13L21.59 10.13L21.59 10.13Q22.08 9.70 22.08 8.88L22.08 8.88L22.08 8.62L22.08 8.62Q22.08 7.88 21.59 7.43L21.59 7.43L21.59 7.43Q21.11 6.97 20.12 6.97L20.12 6.97L17.93 6.97ZM38.23 15.68L37.52 13.24L33.32 13.24L32.61 15.68L31.35 15.68L34.31 5.88L36.53 5.88L39.49 15.68L38.23 15.68ZM35.50 6.38L35.34 6.38L33.64 12.15L37.20 12.15L35.50 6.38ZM50.08 5.88L52.91 15.18L53.07 15.18L53.07 5.88L54.25 5.88L54.25 15.68L51.90 15.68L49.07 6.38L48.90 6.38L48.90 15.68L47.73 15.68L47.73 5.88L50.08 5.88ZM68.87 9.21L68.87 8.71L68.87 8.71Q68.87 8.23 68.68 7.87L68.68 7.87L68.68 7.87Q68.49 7.50 68.17 7.27L68.17 7.27L68.17 7.27Q67.84 7.03 67.42 6.90L67.42 6.90L67.42 6.90Q67.00 6.78 66.54 6.78L66.54 6.78L66.54 6.78Q66.14 6.78 65.77 6.88L65.77 6.88L65.77 6.88Q65.41 6.99 65.12 7.18L65.12 7.18L65.12 7.18Q64.83 7.38 64.67 7.66L64.67 7.66L64.67 7.66Q64.50 7.95 64.50 8.33L64.50 8.33L64.50 8.41L64.50 8.41Q64.50 8.82 64.67 9.11L64.67 9.11L64.67 9.11Q64.83 9.39 65.16 9.60L65.16 9.60L65.16 9.60Q65.49 9.80 65.98 9.93L65.98 9.93L65.98 9.93Q66.47 10.07 67.13 10.16L67.13 10.16L67.13 10.16Q68.67 10.40 69.40 11.07L69.40 11.07L69.40 11.07Q70.13 11.73 70.13 12.85L70.13 12.85L70.13 13.02L70.13 13.02Q70.13 13.65 69.91 14.17L69.91 14.17L69.91 14.17Q69.69 14.70 69.27 15.08L69.27 15.08L69.27 15.08Q68.84 15.46 68.21 15.67L68.21 15.67L68.21 15.67Q67.58 15.88 66.75 15.88L66.75 15.88L66.75 15.88Q65.81 15.88 65.09 15.60L65.09 15.60L65.09 15.60Q64.37 15.33 63.89 14.85L63.89 14.85L63.89 14.85Q63.41 14.36 63.15 13.71L63.15 13.71L63.15 13.71Q62.90 13.06 62.90 12.29L62.90 12.29L62.90 11.87L64.08 11.87L64.08 12.21L64.08 12.21Q64.08 13.50 64.78 14.14L64.78 14.14L64.78 14.14Q65.49 14.78 66.75 14.78L66.75 14.78L66.75 14.78Q67.84 14.78 68.40 14.30L68.40 14.30L68.40 14.30Q68.95 13.82 68.95 13.02L68.95 13.02L68.95 12.94L68.95 12.94Q68.95 12.17 68.38 11.76L68.38 11.76L68.38 11.76Q67.82 11.35 66.54 11.17L66.54 11.17L66.54 11.17Q65.80 11.07 65.20 10.87L65.20 10.87L65.20 10.87Q64.61 10.67 64.19 10.34L64.19 10.34L64.19 10.34Q63.77 10.01 63.55 9.55L63.55 9.55L63.55 9.55Q63.32 9.09 63.32 8.46L63.32 8.46L63.32 8.29L63.32 8.29Q63.32 7.71 63.56 7.24L63.56 7.24L63.56 7.24Q63.80 6.76 64.22 6.41L64.22 6.41L64.22 6.41Q64.65 6.06 65.25 5.87L65.25 5.87L65.25 5.87Q65.84 5.68 66.56 5.68L66.56 5.68L66.56 5.68Q67.38 5.68 68.03 5.92L68.03 5.92L68.03 5.92Q68.68 6.16 69.13 6.56L69.13 6.56L69.13 6.56Q69.58 6.96 69.81 7.50L69.81 7.50L69.81 7.50Q70.04 8.04 70.04 8.62L70.04 8.62L70.04 9.21L68.87 9.21ZM79.17 15.68L79.17 5.88L85.19 5.88L85.19 6.97L80.35 6.97L80.35 10.22L85.11 10.22L85.11 11.31L80.35 11.31L80.35 15.68L79.17 15.68ZM94.25 11.87L94.25 9.69L94.25 9.69Q94.25 7.78 95.16 6.73L95.16 6.73L95.16 6.73Q96.07 5.68 97.69 5.68L97.69 5.68L97.69 5.68Q99.32 5.68 100.23 6.73L100.23 6.73L100.23 6.73Q101.14 7.78 101.14 9.69L101.14 9.69L101.14 11.87L101.14 11.87Q101.14 13.83 100.23 14.85L100.23 14.85L100.23 14.85Q99.32 15.88 97.69 15.88L97.69 15.88L97.69 15.88Q96.07 15.88 95.16 14.85L95.16 14.85L95.16 14.85Q94.25 13.83 94.25 11.87L94.25 11.87ZM97.69 14.78L97.69 14.78L97.69 14.78Q98.83 14.78 99.39 14.01L99.39 14.01L99.39 14.01Q99.96 13.23 99.96 11.79L99.96 11.79L99.96 9.77L99.96 9.77Q99.96 8.43 99.39 7.60L99.39 7.60L99.39 7.60Q98.83 6.78 97.69 6.78L97.69 6.78L97.69 6.78Q96.56 6.78 95.99 7.60L95.99 7.60L95.99 7.60Q95.42 8.43 95.42 9.77L95.42 9.77L95.42 11.79L95.42 11.79Q95.42 13.23 95.99 14.01L95.99 14.01L95.99 14.01Q96.56 14.78 97.69 14.78ZM116.33 12.15L116.33 15.68L115.15 15.68L115.15 12.40L115.15 12.40Q115.15 12.04 114.98 11.84L114.98 11.84L114.98 11.84Q114.81 11.65 114.39 11.65L114.39 11.65L111.34 11.65L111.34 15.68L110.17 15.68L110.17 5.88L113.67 5.88L113.67 5.88Q114.42 5.88 114.98 6.10L114.98 6.10L114.98 6.10Q115.54 6.31 115.91 6.68L115.91 6.68L115.91 6.68Q116.28 7.04 116.47 7.53L116.47 7.53L116.47 7.53Q116.66 8.01 116.66 8.54L116.66 8.54L116.66 8.96L116.66 8.96Q116.66 9.51 116.36 10.05L116.36 10.05L116.36 10.05Q116.06 10.60 115.43 10.89L115.43 10.89L115.43 11.06L115.43 11.06Q115.85 11.13 116.09 11.40L116.09 11.40L116.09 11.40Q116.33 11.66 116.33 12.15L116.33 12.15ZM111.34 6.97L111.34 10.56L113.53 10.56L113.53 10.56Q114.52 10.56 115.00 10.13L115.00 10.13L115.00 10.13Q115.49 9.70 115.49 8.88L115.49 8.88L115.49 8.62L115.49 8.62Q115.49 7.88 115.00 7.43L115.00 7.43L115.00 7.43Q114.52 6.97 113.53 6.97L113.53 6.97L111.34 6.97ZM125.19 15.68L125.19 5.88L127.43 5.88L128.74 15.18L128.91 15.18L130.23 5.88L132.47 5.88L132.47 15.68L131.38 15.68L131.38 6.38L131.21 6.38L129.89 15.68L127.76 15.68L126.45 6.38L126.28 6.38L126.28 15.68L125.19 15.68ZM141.29 6.97L141.29 5.88L147.50 5.88L147.50 6.97L144.98 6.97L144.98 14.59L147.50 14.59L147.50 15.68L141.29 15.68L141.29 14.59L143.81 14.59L143.81 6.97L141.29 6.97ZM159.05 5.88L161.88 15.18L162.05 15.18L162.05 5.88L163.23 5.88L163.23 15.68L160.87 15.68L158.05 6.38L157.88 6.38L157.88 15.68L156.70 15.68L156.70 5.88L159.05 5.88ZM174.59 12.07L174.59 10.98L178.96 10.98L178.96 15.68L177.87 15.68L177.87 14.50L177.70 14.50L177.70 14.50Q177.46 15.12 176.86 15.50L176.86 15.50L176.86 15.50Q176.26 15.88 175.46 15.88L175.46 15.88L175.46 15.88Q173.88 15.88 172.98 14.85L172.98 14.85L172.98 14.85Q172.07 13.83 172.07 11.87L172.07 11.87L172.07 9.69L172.07 9.69Q172.07 7.78 172.98 6.73L172.98 6.73L172.98 6.73Q173.89 5.68 175.52 5.68L175.52 5.68L175.52 5.68Q176.36 5.68 177.00 5.96L177.00 5.96L177.00 5.96Q177.65 6.23 178.08 6.71L178.08 6.71L178.08 6.71Q178.51 7.20 178.74 7.85L178.74 7.85L178.74 7.85Q178.96 8.50 178.96 9.24L178.96 9.24L178.96 9.41L177.79 9.41L177.79 9.24L177.79 9.24Q177.79 8.76 177.65 8.32L177.65 8.32L177.65 8.32Q177.52 7.87 177.25 7.53L177.25 7.53L177.25 7.53Q176.97 7.18 176.55 6.98L176.55 6.98L176.55 6.98Q176.12 6.78 175.52 6.78L175.52 6.78L175.52 6.78Q174.38 6.78 173.82 7.60L173.82 7.60L173.82 7.60Q173.25 8.43 173.25 9.77L173.25 9.77L173.25 11.79L173.25 11.79Q173.25 13.23 173.82 14.01L173.82 14.01L173.82 14.01Q174.38 14.78 175.55 14.78L175.55 14.78L175.55 14.78Q176.60 14.78 177.19 14.11L177.19 14.11L177.19 14.11Q177.79 13.44 177.79 12.24L177.79 12.24L177.79 12.07L174.59 12.07ZM203.56 6.97L203.56 5.88L209.78 5.88L209.78 6.97L207.26 6.97L207.26 14.59L209.78 14.59L209.78 15.68L203.56 15.68L203.56 14.59L206.08 14.59L206.08 6.97L203.56 6.97ZM218.97 6.97L218.97 5.88L222.19 5.88L222.19 5.88Q224.01 5.88 224.85 6.75L224.85 6.75L224.85 6.75Q225.69 7.62 225.69 9.52L225.69 9.52L225.69 12.04L225.69 12.04Q225.69 13.94 224.85 14.81L224.85 14.81L224.85 14.81Q224.01 15.68 222.19 15.68L222.19 15.68L218.97 15.68L218.97 14.57L219.81 14.57L219.81 6.97L218.97 6.97ZM220.99 14.59L222.03 14.59L222.03 14.59Q222.67 14.59 223.14 14.46L223.14 14.46L223.14 14.46Q223.61 14.34 223.92 14.04L223.92 14.04L223.92 14.04Q224.22 13.73 224.37 13.23L224.37 13.23L224.37 13.23Q224.52 12.73 224.52 11.96L224.52 11.96L224.52 9.60L224.52 9.60Q224.52 8.83 224.37 8.33L224.37 8.33L224.37 8.33Q224.22 7.83 223.92 7.53L223.92 7.53L223.92 7.53Q223.61 7.22 223.14 7.10L223.14 7.10L223.14 7.10Q222.67 6.97 222.03 6.97L222.03 6.97L220.99 6.97L220.99 14.59ZM234.84 15.68L234.84 5.88L240.77 5.88L240.77 6.97L236.01 6.97L236.01 10.22L240.69 10.22L240.69 11.31L236.01 11.31L236.01 14.59L240.86 14.59L240.86 15.68L234.84 15.68ZM256.19 15.68L255.47 13.24L251.27 13.24L250.56 15.68L249.30 15.68L252.27 5.88L254.48 5.88L257.45 15.68L256.19 15.68ZM253.46 6.38L253.29 6.38L251.59 12.15L255.15 12.15L253.46 6.38ZM271.25 9.21L271.25 8.71L271.25 8.71Q271.25 8.23 271.06 7.87L271.06 7.87L271.06 7.87Q270.87 7.50 270.55 7.27L270.55 7.27L270.55 7.27Q270.23 7.03 269.81 6.90L269.81 6.90L269.81 6.90Q269.39 6.78 268.93 6.78L268.93 6.78L268.93 6.78Q268.52 6.78 268.16 6.88L268.16 6.88L268.16 6.88Q267.79 6.99 267.51 7.18L267.51 7.18L267.51 7.18Q267.22 7.38 267.05 7.66L267.05 7.66L267.05 7.66Q266.88 7.95 266.88 8.33L266.88 8.33L266.88 8.41L266.88 8.41Q266.88 8.82 267.05 9.11L267.05 9.11L267.05 9.11Q267.22 9.39 267.55 9.60L267.55 9.60L267.55 9.60Q267.88 9.80 268.37 9.93L268.37 9.93L268.37 9.93Q268.86 10.07 269.51 10.16L269.51 10.16L269.51 10.16Q271.05 10.40 271.78 11.07L271.78 11.07L271.78 11.07Q272.51 11.73 272.51 12.85L272.51 12.85L272.51 13.02L272.51 13.02Q272.51 13.65 272.29 14.17L272.29 14.17L272.29 14.17Q272.08 14.70 271.65 15.08L271.65 15.08L271.65 15.08Q271.22 15.46 270.59 15.67L270.59 15.67L270.59 15.67Q269.96 15.88 269.14 15.88L269.14 15.88L269.14 15.88Q268.20 15.88 267.48 15.60L267.48 15.60L267.48 15.60Q266.76 15.33 266.27 14.85L266.27 14.85L266.27 14.85Q265.79 14.36 265.54 13.71L265.54 13.71L265.54 13.71Q265.29 13.06 265.29 12.29L265.29 12.29L265.29 11.87L266.46 11.87L266.46 12.21L266.46 12.21Q266.46 13.50 267.17 14.14L267.17 14.14L267.17 14.14Q267.88 14.78 269.14 14.78L269.14 14.78L269.14 14.78Q270.23 14.78 270.78 14.30L270.78 14.30L270.78 14.30Q271.33 13.82 271.33 13.02L271.33 13.02L271.33 12.94L271.33 12.94Q271.33 12.17 270.77 11.76L270.77 11.76L270.77 11.76Q270.20 11.35 268.93 11.17L268.93 11.17L268.93 11.17Q268.18 11.07 267.59 10.87L267.59 10.87L267.59 10.87Q266.99 10.67 266.57 10.34L266.57 10.34L266.57 10.34Q266.15 10.01 265.93 9.55L265.93 9.55L265.93 9.55Q265.71 9.09 265.71 8.46L265.71 8.46L265.71 8.29L265.71 8.29Q265.71 7.71 265.94 7.24L265.94 7.24L265.94 7.24Q266.18 6.76 266.61 6.41L266.61 6.41L266.61 6.41Q267.04 6.06 267.63 5.87L267.63 5.87L267.63 5.87Q268.23 5.68 268.94 5.68L268.94 5.68L268.94 5.68Q269.77 5.68 270.42 5.92L270.42 5.92L270.42 5.92Q271.07 6.16 271.52 6.56L271.52 6.56L271.52 6.56Q271.96 6.96 272.20 7.50L272.20 7.50L272.20 7.50Q272.43 8.04 272.43 8.62L272.43 8.62L272.43 9.21L271.25 9.21Z"></path></g></svg>